<svg id="Capa_1" data-name="Capa 1" xmlns="http://www.w3.org/2000/svg" viewBox="0 0 1306.9 952.7">
  <defs>
    <style>
      .cls-1 {
        fill: #e5d9c4;
      }

      .cls-2 {
        fill: #bf948a;
      }
    </style>
  </defs>
  <path class="cls-1" d="M1306.7,458.3c.9-72.3-1.2-145.2-6.3-216.6-2.6-35.7-6.2-62.9-11.5-85.6-7-30.1-16.7-50.6-29.5-62.9-15.5-14.8-33.8-14.7-50-14.6-16.9,0-33.7.2-50.6.3-87.9.5-178.7,1.1-268.1,1.1s-99.7,0-153.3,0c.5-2.8.9-5.6,1.3-8.5,1-6.8,1.7-14-.7-20.5-2.5-6.7-7.9-11.7-13.2-16.5C707.8,18.8,686.8-.2,662,0c-24.4.2-52.8,4.1-75.9,13.1-6.3,2.5-12.8,5.5-17,10.8-5.5,6.8-6.5,16.1-6.5,24.8,0,9,.8,18,2.4,26.8-15.5-1.2-31.1-1.7-46.2,0-9,1-18.1,2.2-26.9,3.3-31.9,4-62,7.8-93.8,6.7-28.2-1-57.6-3.7-86-6.3-75.9-6.9-154.5-14.1-228.2,6.9-17.1,4.9-41.6,15-56.5,46.3C7.6,173.6,5.1,229.8,5.3,284.4c.1,30-.8,59.8-1.7,88.6-.8,27-1.7,54.9-1.7,83.1,0,21.2-.5,43.3-.9,66.7-1.7,82.9-3.6,177,15.8,248.6,2.7,10,5.9,19.9,8.9,29.4,5.1,15.9,10.3,32.3,13.6,49.8,1.3,6.7,2.3,13.8,3.4,20.8,3.3,22.2,6.7,45.1,17.3,58.3,7.9,9.8,18.4,11.9,26.8,13.6,4.7,1,9.5,2.1,14.1,3.1,13.5,3.1,27.3,6.2,41,6.2,6.3,0,12.6-.7,18.8-2.3,6.2-1.6,12.4-3.5,18.4-5.4,19.3-6,37.4-11.7,57.4-8.2,5.4,1,10.8,2.2,16,3.4,14.8,3.3,28.8,6.3,44.2,6.3h516s188.7,0,188.7,0h0c17.7,0,35.3-1.8,52.3-3.5,20.3-2.1,41.2-4.2,62.5-3.3,56.7,2.3,99.7-3.7,139.1-19.5,9.3-3.7,20-8.6,28.9-19.6,1-1.2,1.9-2.4,2.8-3.7,22.4-32.5,17.7-123.7,14.2-190.2-.8-15.9-1.5-29.7-1.8-40.7-.8-39.1,1.4-79.4,3.5-118.4,1.6-29.3,3.2-59.5,3.6-89.2ZM1298.6,665.9c.2,11,.9,24.8,1.8,40.8,3.2,62.7,8.1,157.4-14.1,189.6-.9,1.3-1.8,2.5-2.7,3.6h0c-8.7,10.7-19.3,15.6-28.5,19.3-39.3,15.8-82.1,21.8-138.7,19.4-21.4-.9-42.4,1.3-62.7,3.3-17,1.7-34.5,3.5-52.2,3.5H296.7c-15.3,0-29.3-3.1-44-6.3-5.2-1.1-10.6-2.3-16.1-3.4-20.2-3.5-38.5,2.2-57.9,8.2-6,1.9-12.1,3.8-18.3,5.4-19.6,5.1-39.8.5-59.3-4-4.6-1.1-9.4-2.2-14.2-3.1-8.7-1.8-18.6-3.8-26.2-13.3-10.4-13-13.8-35.8-17.1-57.9-1-6.9-2.1-14.1-3.4-20.8-3.3-17.5-8.6-34-13.6-49.9-3-9.5-6.2-19.4-8.9-29.4C-1.6,699.6.3,605.7,2,522.8c.5-23.4.9-45.6.9-66.7,0-28.2.9-56.1,1.7-83.1.9-28.8,1.8-58.6,1.7-88.6-.2-54.4,2.3-110.5,21.9-151.7,14.7-31,38.9-41,55.9-45.8,36.6-10.4,74.5-13.9,112.6-13.9s77.2,3.5,115.3,7c28.4,2.6,57.8,5.3,86.1,6.3,31.9,1.2,62.1-2.6,94-6.7,8.8-1.1,17.8-2.3,26.9-3.3,15-1.7,30.7-1.2,46.3,0,1,5.1,2.2,10.2,3.7,15.3,1.9,6.2,4.2,12.4,5,18.8.8,6.5,0,13.1,1.1,19.5,2.5,14.1,24.1,23,36,28.6,16.7,7.9,35.8,10.4,53.8,6.5,24.1-5.2,45.8-20.9,58.2-42.3,6.2-10.7,10.1-22.5,12.8-34.7.5-2.4,1-4.8,1.4-7.2,53.6,0,105.9,0,153.5,0,89.4,0,180.2-.5,268.1-1.1,16.9-.1,33.7-.2,50.6-.3,16,0,34.1-.2,49.3,14.4,13.9,13.3,33.2,43.1,40.7,147.8,5.1,71.4,7.2,144.2,6.3,216.5-.4,29.7-2,59.9-3.6,89.2-2.1,39-4.3,79.4-3.5,118.5Z"/>
  <g>
    <path class="cls-2" d="M622.8,84.1v21c-1.4,15.2,8.9,18.6,18.4,19.3,9.5.7,11.5-.3,15,0,3.5.3,4.1-7.6,5.4-14.4,1.1-5.3-6.8-12.2-7.5-17.3-.6-4-2.5-14.4-4-20.2-.4-1.3-3.2-5-4.6-5l-14.6-2c-.9-.1-1.8.3-2.4,1-1.9,2.5-5.8,8.8-5.8,17.5"/>
    <path class="cls-2" d="M641.6,54.5l2.5-5.5c.2-.5.2-1,0-1.5-1.3-3-.3-6.4-3.1-7.8-3.1-1.6-4-1.4-5-2.1s-6.3-1.1-6.8.7c-.5,1.8-2.2,8.2-2.7,9.9-.4,1.4,2.9,6.6,3.9,8.1.2.3.5.6.8.7l4.7,2c.5.2,1.1.2,1.6,0,1.1-.6,2.9-2,4-4.3"/>
    <path class="cls-2" d="M657.6,71.5v10.9c-.8,8,5,9.8,10.5,10.1,5.4.4,6.6-.4,8.5,0,1.9.4,2.3-4,3.1-7.5.6-2.8-3.9-6.4-4.3-9-.3-2.1-2.4-9.8-3.3-12.9-.2-.8-.9-1.3-1.8-1.3h-8.1c-.5,0-1,.2-1.4.6-1.1,1.3-3.3,4.6-3.3,9.1"/>
    <path class="cls-2" d="M660.1,45.5l-1.1,1.2c-.4.5-.5,1.2-.3,1.9.8,1.8,1.3,4.7,2.9,5.2,1.8.6,2.3.5,3,.8.6.3,3.6,0,3.8-.9.1-1,.6-4.8.7-5.8.1-.8-2.1-3.4-2.8-4.3-.1-.2-.4-.3-.6-.4l-2.8-.7c-.4,0-.7,0-1,.2-.6.4-1.5,1.3-1.9,2.7"/>
  </g>
</svg>