<svg id="Capa_1" data-name="Capa 1" xmlns="http://www.w3.org/2000/svg" viewBox="0 0 668.3 950.7">
  <defs>
    <style>
      .cls-1 {
        fill: #e5d9c4;
      }

      .cls-2 {
        fill: #bf948a;
      }
    </style>
  </defs>
  <path class="cls-1" d="M72.8,950.7c-7.1,0-14.2-3.2-21.1-6.3-2.4-1.1-4.8-2.1-7.2-3.1-4.4-1.7-9.8-3.9-13.8-13.7-5.4-13.2-7.1-36-8.8-58.1-.5-6.9-1.1-14-1.7-20.7-1.7-17.5-4.4-33.8-7-49.7-1.6-9.5-3.2-19.3-4.5-29.3C-1.3,698.3-.4,604.5.5,521.7c.2-23.4.5-45.4.5-66.6,0-28.1.5-56,.9-82.9.5-28.7.9-58.4.9-88.4-.1-54.4,1.2-110.4,11.2-151.6,7.6-31.3,20.2-41.4,29-46.3,37.8-21,78-13.9,116.9-7,14.5,2.6,29.5,5.2,43.9,6.3,16.2,1.2,31.6-2.6,47.8-6.6,4.5-1.1,9.1-2.3,13.7-3.3,11-2.4,22.5-.4,33.6,1.6,7.4,1.3,15,2.7,22.4,2.7,46.2.2,93.5.2,134.1.2s92.1-.5,136.9-1.1c8.6-.1,17.3-.2,25.9-.3,7.9,0,17.8-.2,25.8,14.7,7.1,13.4,17.1,43.3,20.9,148,2.6,71.2,3.7,143.9,3.2,216.1-.2,29.6-1,59.8-1.8,89-1.1,38.9-2.2,79.2-1.8,118.2.1,11,.5,24.7.9,40.6,1.8,66.4,4.2,157.3-7.3,189.7-.5,1.3-.9,2.5-1.4,3.7h0c-4.5,10.9-10,15.8-14.8,19.6-20.2,15.9-42.2,21.9-71.3,19.5-10.9-.9-21.5,1.3-31.9,3.3-8.7,1.7-17.7,3.5-26.8,3.5H151.9c-7.9,0-15.1-3.1-22.7-6.3-2.7-1.1-5.4-2.3-8.2-3.3-10-3.4-19.3,2.2-29,8.2-3.1,1.9-6.2,3.8-9.4,5.4-3.2,1.7-6.5,2.3-9.8,2.3ZM100.8,73.1c-19.4,0-38.7,3.4-57.4,13.8-18,10-24.9,30.8-28.5,45.6C4.9,173.6,3.6,229.6,3.7,283.9c0,29.9-.4,59.6-.9,88.4-.4,26.9-.9,54.8-.9,82.9,0,21.1-.2,43.2-.5,66.6-.9,82.7-1.8,176.4,8,247.8,1.4,10,3,19.8,4.5,29.3,2.6,15.9,5.3,32.3,7,49.8.6,6.7,1.2,13.8,1.7,20.7,1.7,22,3.4,44.8,8.8,57.8,3.9,9.4,8.9,11.4,13.3,13.2,2.4,1,4.9,2.1,7.3,3.1,10.3,4.6,20.1,9,30,4,3.1-1.6,6.3-3.5,9.3-5.4,9.5-5.8,19.4-11.8,29.9-8.2,2.8,1,5.6,2.2,8.2,3.4,7.5,3.2,14.6,6.3,22.4,6.3h360.1c9,0,17.9-1.8,26.6-3.5,10.4-2.1,21.1-4.2,32.1-3.3,28.8,2.3,50.6-3.6,70.6-19.3,4.7-3.7,10.1-8.5,14.5-19.2h0c.5-1.2,1-2.4,1.4-3.6,11.4-32.2,8.9-126.7,7.2-189.3-.4-15.9-.8-29.6-.9-40.7-.4-39,.7-79.3,1.8-118.2.8-29.2,1.6-59.4,1.8-88.9.5-72.1-.6-144.8-3.2-216-1.8-50.1-6-119.8-20.8-147.6-7.7-14.4-16.9-14.3-24.9-14.2-8.6,0-17.3.2-25.9.3-44.9.5-91.3,1.1-136.9,1.1s-87.9,0-134.2-.2c-7.4,0-15.1-1.4-22.5-2.7-11-2-22.5-4-33.3-1.6-4.6,1-9.2,2.2-13.7,3.3-15.6,3.9-31.8,7.8-48.1,6.7-14.4-1-29.5-3.7-44-6.3-19.4-3.5-39.2-7-58.8-7Z"/>
  <path class="cls-1" d="M416.5,88.1c-2.7,12.1-6.6,24-12.8,34.7-12.4,21.3-34.1,37.1-58.2,42.3-18.1,3.9-37.2,1.4-53.8-6.5-11.9-5.6-33.6-14.6-36-28.6-1.1-6.4-.4-13-1.1-19.5-.8-6.5-3.1-12.6-5-18.8-4.2-13.9-6.3-28.5-6.3-43.1,0-8.7,1.1-18,6.5-24.8,4.3-5.3,10.7-8.3,17-10.8C289.8,4.2,318.2.2,342.7,0c24.8-.2,45.8,18.8,63,34.4,5.3,4.8,10.7,9.9,13.2,16.5,2.4,6.5,1.7,13.7.7,20.5-.8,5.6-1.8,11.2-3,16.7Z"/>
  <g>
    <path class="cls-2" d="M303.4,84.1v21c-1.4,15.2,8.9,18.6,18.4,19.3,9.5.7,11.5-.3,15,0,3.5.3,4.1-7.6,5.4-14.4,1.1-5.3-6.8-12.2-7.5-17.3-.6-4-2.5-14.4-4-20.2-.4-1.3-3.2-5-4.6-5l-14.6-2c-.9-.1-1.8.3-2.4,1-1.9,2.5-5.8,8.8-5.8,17.5"/>
    <path class="cls-2" d="M322.3,54.5l2.5-5.5c.2-.5.2-1,0-1.5-1.3-3-.3-6.4-3.1-7.8-3.1-1.6-4-1.4-5-2.1-1-.7-6.3-1.1-6.8.7-.5,1.8-2.2,8.2-2.7,9.9-.4,1.4,2.9,6.6,3.9,8.1.2.3.5.6.8.7l4.7,2c.5.2,1.1.2,1.6,0,1.1-.6,2.9-2,4-4.3"/>
    <path class="cls-2" d="M338.2,71.5v10.9c-.8,8,5,9.8,10.5,10.1,5.4.4,6.6-.4,8.5,0,1.9.4,2.3-4,3.1-7.5.6-2.8-3.9-6.4-4.3-9-.3-2.1-2.4-9.8-3.3-12.9-.2-.8-.9-1.3-1.8-1.3h-8.1c-.5,0-1,.2-1.4.6-1.1,1.3-3.3,4.6-3.3,9.1"/>
    <path class="cls-2" d="M340.8,45.5l-1.1,1.2c-.4.5-.5,1.2-.3,1.9.8,1.8,1.3,4.7,2.9,5.2,1.8.6,2.3.5,3,.8.6.3,3.6,0,3.8-.9.1-1,.6-4.8.7-5.8.1-.8-2.1-3.4-2.8-4.3-.1-.2-.4-.3-.6-.4l-2.8-.7c-.4,0-.7,0-1,.2-.6.4-1.5,1.3-1.9,2.7"/>
  </g>
</svg>