<svg id="Capa_1" data-name="Capa 1" xmlns="http://www.w3.org/2000/svg" viewBox="0 0 1306.9 497.8">
  <defs>
    <style>
      .cls-1 {
        fill: #e5d9c4;
      }

      .cls-2 {
        fill: #bf948a;
      }
    </style>
  </defs>
  <path class="cls-1" d="M1306.7,258.8c.9-34.9-1.2-70.1-6.3-104.6-7.6-50.9-27.1-65.4-41.1-71.9-15.4-7.1-33.7-7.1-49.8-7h-51c-87.7.4-178.5.7-267.7.7s-99.3,0-152.6,0c.2-1.5.5-2.9.7-4.4,1-6.8,1.7-14-.7-20.5-2.5-6.7-7.9-11.7-13.2-16.5C707.9,18.8,686.8-.2,662,0c-24.4.2-52.8,4.1-75.9,13.1-6.3,2.5-12.8,5.5-17,10.8-5.5,6.8-6.5,16.1-6.5,24.8,0,8.4.7,16.8,2.1,25.1-15.4-.6-30.9-.8-45.9,0-9,.5-18.1,1-26.9,1.6-31.9,1.9-62.1,3.8-93.9,3.2-28.2-.5-57.6-1.8-86-3-75.9-3.3-154.4-6.8-228.1,3.3-17.1,2.3-41.6,7.2-56.5,22.4C7.7,121.2,5.1,148.4,5.3,174.8c.1,14.5-.8,28.8-1.7,42.7-.8,13-1.7,26.5-1.7,40.2,0,10.2-.5,20.9-.9,32.2-1.7,40.1-3.6,85.6,15.8,120.3,2.7,4.8,5.9,9.6,8.9,14.2,5.1,7.7,10.3,15.6,13.6,24,1.3,3.2,2.3,6.7,3.3,10,3.3,10.8,6.8,21.9,17.4,28.3,7.8,4.7,17.9,5.7,26.7,6.6,4.7.5,9.5,1,14.2,1.5,13.5,1.5,27.2,3,41,3s12.5-.3,18.7-1.1c6.2-.8,12.4-1.7,18.3-2.6,19.3-2.9,37.5-5.6,57.5-4,5.4.5,10.8,1.1,16,1.6,14.8,1.6,28.8,3.1,44.2,3.1h704.8c17.7,0,35.3-.9,52.2-1.7,20.3-1,41.2-2,62.6-1.6,56.7,1.1,99.6-1.8,139-9.4,9.3-1.8,20-4.2,28.8-9.4,1-.6,1.9-1.2,2.8-1.8,22.5-15.8,17.8-59.9,14.4-92.2-.8-7.7-1.5-14.3-1.8-19.6-.8-18.8,1.4-38.3,3.5-57.1,1.6-14.1,3.2-28.8,3.6-43.1ZM1298.6,359.1c.2,5.3.9,12,1.8,19.7,3.2,30.2,8.1,75.8-14,91.3-.9.6-1.8,1.2-2.7,1.8-8.7,5.2-19.3,7.5-28.5,9.3-39.4,7.6-82.2,10.5-138.8,9.4-21.4-.4-42.4.6-62.6,1.6-17,.8-34.5,1.7-52.2,1.7H296.7c-15.3,0-29.3-1.5-44.1-3-5.2-.6-10.6-1.1-16-1.6-20.2-1.7-38.4,1.1-57.8,4-6,.9-12.1,1.8-18.3,2.6-19.7,2.5-39.9.2-59.4-1.9-4.6-.5-9.4-1-14.2-1.5-8.8-.9-18.7-1.8-26.3-6.4-10.3-6.2-13.7-17.2-17-27.8-1-3.4-2.1-6.8-3.4-10.1-3.3-8.5-8.6-16.5-13.7-24.2-3-4.6-6.2-9.3-8.9-14.2C-1.6,375.3.3,330,2,290c.5-11.3.9-22,.9-32.2,0-13.6.9-27.1,1.7-40.1.9-13.9,1.8-28.3,1.7-42.8-.2-26.2,2.3-53.2,21.8-73,7-7.2,20.5-17.2,55.9-22.1,36.7-5,74.5-6.7,112.7-6.7s77.2,1.7,115.3,3.4c28.4,1.2,57.8,2.5,86.1,3,31.9.6,62-1.3,94-3.2,8.8-.5,17.8-1.1,26.9-1.6,15-.8,30.5-.6,46,0,1,5.7,2.3,11.4,4,17,1.9,6.2,4.2,12.4,5,18.8.8,6.5,0,13.1,1.1,19.5,2.5,14.1,24.1,23,36,28.6,16.7,7.9,35.8,10.4,53.8,6.5,24.1-5.2,45.8-20.9,58.2-42.3,6.2-10.7,10.1-22.5,12.8-34.7.8-3.7,1.5-7.5,2.1-11.3,53.4,0,105.4,0,152.8,0,89.2,0,180-.3,267.7-.5h51c16-.2,34.2-.2,49.4,6.8,13.8,6.4,33.1,20.7,40.6,71.1,5.1,34.5,7.2,69.6,6.3,104.5-.4,14.3-2,28.9-3.6,43-2.1,18.9-4.3,38.4-3.5,57.3Z"/>
  <g>
    <path class="cls-2" d="M622.8,84.1v21c-1.4,15.2,8.9,18.6,18.4,19.3,9.5.7,11.5-.3,15,0,3.5.3,4.1-7.6,5.4-14.4,1.1-5.3-6.8-12.2-7.5-17.3-.6-4-2.5-14.4-4-20.2-.4-1.3-3.2-5-4.6-5l-14.6-2c-.9-.1-1.8.3-2.4,1-1.9,2.5-5.8,8.8-5.8,17.5"/>
    <path class="cls-2" d="M641.6,54.6l2.5-5.5c.2-.5.2-1,0-1.5-1.3-3-.3-6.4-3.1-7.8-3.1-1.6-4-1.4-5-2.1s-6.3-1.1-6.8.7c-.5,1.8-2.2,8.2-2.7,9.9-.4,1.4,2.9,6.6,3.9,8.1.2.3.5.6.8.7l4.7,2c.5.2,1.1.2,1.6,0,1.1-.6,2.9-2,4-4.3"/>
    <path class="cls-2" d="M657.6,71.5v10.9c-.8,8,5,9.8,10.5,10.1,5.4.4,6.6-.4,8.5,0,1.9.4,2.3-4,3.1-7.5.6-2.8-3.9-6.4-4.3-9-.3-2.1-2.4-9.8-3.3-12.9-.2-.8-.9-1.3-1.8-1.3h-8.1c-.5,0-1,.2-1.4.6-1.1,1.3-3.3,4.6-3.3,9.1"/>
    <path class="cls-2" d="M660.1,45.5l-1.1,1.2c-.4.5-.5,1.2-.3,1.9.8,1.8,1.3,4.7,2.9,5.2,1.8.6,2.3.5,3,.8.6.3,3.6,0,3.8-.9.1-1,.6-4.8.7-5.8.1-.8-2.1-3.4-2.8-4.3-.1-.2-.4-.3-.6-.4l-2.8-.7c-.4,0-.7,0-1,.2-.6.4-1.5,1.3-1.9,2.7"/>
  </g>
</svg>