<svg xmlns="http://www.w3.org/2000/svg" viewBox="226 -6 195 180">
  <path fill="#e5d9c4" d="M416.5,88.1c-2.7,12.1-6.6,24-12.8,34.7-12.4,21.3-34.1,37.1-58.2,42.3-18.1,3.9-37.2,1.4-53.8-6.5-11.9-5.6-33.6-14.6-36-28.6-1.1-6.4-.4-13-1.1-19.5-.8-6.5-3.1-12.6-5-18.8-4.2-13.9-6.3-28.5-6.3-43.1,0-8.7,1.1-18,6.5-24.8,4.3-5.3,10.7-8.3,17-10.8C289.8,4.2,318.2.2,342.7,0c24.8-.2,45.8,18.8,63,34.4,5.3,4.8,10.7,9.9,13.2,16.5,2.4,6.5,1.7,13.7.7,20.5-.8,5.6-1.8,11.2-3,16.7Z"/>
  <g fill="#bf948a">
    <path d="M303.4,84.1v21c-1.4,15.2,8.9,18.6,18.4,19.3,9.5.7,11.5-.3,15,0,3.5.3,4.1-7.6,5.4-14.4,1.1-5.3-6.8-12.2-7.5-17.3-.6-4-2.5-14.4-4-20.2-.4-1.3-3.2-5-4.6-5l-14.6-2c-.9-.1-1.8.3-2.4,1-1.9,2.5-5.8,8.8-5.8,17.5"/>
    <path d="M322.3,54.5l2.5-5.5c.2-.5.2-1,0-1.5-1.3-3-.3-6.4-3.1-7.8-3.1-1.6-4-1.4-5-2.1-1-.7-6.3-1.1-6.8.7-.5,1.8-2.2,8.2-2.7,9.9-.4,1.4,2.9,6.6,3.9,8.1.2.3.5.6.8.7l4.7,2c.5.2,1.1.2,1.6,0,1.1-.6,2.9-2,4-4.3"/>
    <path d="M338.2,71.5v10.9c-.8,8,5,9.8,10.5,10.1,5.4.4,6.6-.4,8.5,0,1.9.4,2.3-4,3.1-7.5.6-2.8-3.9-6.4-4.3-9-.3-2.1-2.4-9.8-3.3-12.9-.2-.8-.9-1.3-1.8-1.3h-8.1c-.5,0-1,.2-1.4.6-1.1,1.3-3.3,4.6-3.3,9.1"/>
    <path d="M340.8,45.5l-1.1,1.2c-.4.5-.5,1.2-.3,1.9.8,1.8,1.3,4.7,2.9,5.2,1.8.6,2.3.5,3,.8.6.3,3.6,0,3.8-.9.1-1,.6-4.8.7-5.8.1-.8-2.1-3.4-2.8-4.3-.1-.2-.4-.3-.6-.4l-2.8-.7c-.4,0-.7,0-1,.2-.6.4-1.5,1.3-1.9,2.7"/>
  </g>
</svg>
