<?xml version="1.0" encoding="UTF-8"?>
<svg id="Layer_2" data-name="Layer 2" xmlns="http://www.w3.org/2000/svg" viewBox="0 0 96 100">
  <defs>
    <style>
      .cls-1 {
        fill: #e3d6c4;
      }
    </style>
  </defs>
  <path class="cls-1" d="M95.3,32.6c0,0,0-.2,0-.3-.6-2.3-.6-1.8-2.4-3.8-.1-.2-3.5-2.2-3.7-2.3l-3.6-1.8c-3.4-2.4-3.4-3-5.3-4.9-2.3-2.2-4.9-5.5-7.2-7.8-1.8-1.8-9-3.8-10.6-5.7-.9-1-3.4-5-4.5-5.7l-.3-.2c-1.6-.8-2.7,1.7-3.1,3.1-.7,2.5-2,3.5-2,3.5-.7.4-2.8,1.3-3.4,2.3-.4.6-.2,2.7-.6,3.4-.4.7-1.8,1.7-2,2.8,0,0,1.1,3.2,6.3,4.2,1.9.4,3.5,1.2,4.7,2.2,2.5,2,4.4,3.4,7.5,3.5,2.7,0,6.4.4,9.8,1.4.6.3,1.9,1,2.2,2.2-7.4-2.6-16.4-1.1-20.3.9-5.3,2.7-10,1-10,1-6.7-2.5-10.9-.6-10.9-.6-14.9,6.7-5.7,19.9-5.7,19.9l2.5,6.1-1.6.4-7.6.5-9.7,3.5s-5.5,2.4-9.8,5.5c-3.4,2.4-3.9,7.1-4,9.1,0,.4.4.6.7.4l2-1.3s2.6-2.9,4-4.2c.9-.9,2.6-2.1,3.7-2.8.5-.4,1.2-.5,1.8-.3l3.3.9c1.5.2,3.3.1,5.2,0l-1.7,1.7c-7,3-7.9,11.3-7.9,11.3,0,0-.7,2.1-5.7,9.6-3.6,5.4-3,8.4-2.4,9.6.2.4.7.4.9,0l5.6-8.1c3.8-3,8.4-8.2,8.4-8.2l11.4-17.5c3.4-.8,6-1.5,6-1.5,11.5-3.5,10.2-14.1,10.2-14.1-.4-4,.7-8.5.7-8.5l16.1,3.1h6.7c0,0,4.5-.5,4.5-.5.7,0,3.3-1.5,3.7-2l.8-1.3c.5-1,1.8-.7,2.3-1.6.6.8,1.6,1.8,3,2.4l4.6,2.1c.4.2.9.2,1.3,0,2.5-1.1,4.3-.2,5.5-2.6,1.3-2.6,1.2-4.3,1.3-5.2.2-.6-.2-2.4-.7-3.7Z"/>
</svg>