<svg id="Layer_1" data-name="Layer 1" xmlns="http://www.w3.org/2000/svg" viewBox="0 0 181.9 44.3">
  <defs>
    <style>
      .cls-1 {
        fill: currentColor;
      }
    </style>
  </defs>
  <path class="cls-1" d="M40.5,22.2C40.5,9.4,49.3.3,62.2.3s21.7,8.9,21.7,21.9-8.5,22-21.7,22-21.7-8.9-21.7-22M73.5,22.2c0-7.7-4.1-13.3-11.2-13.3s-11.2,5.6-11.2,13.3,4.1,13.6,11.2,13.6,11.2-5.7,11.2-13.6"></path>
  <path class="cls-1" d="M87.8,1.1h15.8l4.4,16.2c1.2,4.6,2.5,9.6,4.1,15.8h.2c1.7-6.7,3-11.3,4.3-16.6l4-15.4h15.7v42.3h-9.7v-21.3c0-4.6,0-8.4.2-12.5h-.2c-.8,3.4-1.8,7.5-2.9,11.4l-6.4,22.4h-10.5l-6.5-22.3c-1.2-3.9-2-7.8-2.8-11.5h-.2c0,3.4.2,7.1.2,11.2v22.5h-9.5V1.1h-.2Z"></path>
  <polygon class="cls-1" points="181.9 36.6 175.6 18.3 169.8 1.2 152.2 1.2 140.3 36.3 140.3 43.4 148.1 43.4 159.1 10.8 162.9 10.8 173.9 43.4 181.9 43.4 181.9 36.6"></polygon>
  <path class="cls-1" d="M32.2,20.6c-3.8-1.5-7-2.1-11.8-2.7-8.1-.9-8.8-3.3-8.8-5,0-2.9,2-4.4,6.8-4.4s9.9,1.4,13.5,4l5.4-7c-2.1-1.7-5.3-3.1-8-4.1s-6.7-1.4-10.8-1.4C8.9,0,1.3,5,1.3,13.1s2.2,8.4,5.8,10.1c3.4,1.6,6.7,2,11.4,2.8,7.2,1.3,9.6,1.8,9.6,5.1s-3,5.1-9.6,5.1-5.2-.6-7.6-1.7c-2.3-1-4.3-2.2-5.8-3.6l-5.1,6.6c1.8,1.8,4.1,3.3,7,4.5,3.4,1.4,6.8,2.2,11.6,2.3,6.6,0,11.5-1.4,14.7-3.9,3.3-2.5,4.9-5.9,4.9-10-.3-5.1-2.3-8.4-6.1-9.8h0Z"></path>
</svg>